# xmcd
# Copyright (C) 1995-1998 Ti Kan
#
# Track frame offsets:
#       150
#       20407
#       36205
#       61705
#       78735
#       99040
#       133447
#       153435
#       166522
#       188512
#       209460
#       239352
#
# Disc length: 3435 seconds
#
# Revision: 0
# Processed by: cddbd v1.5.2PL0 Copyright (c) Steve Scherf et al.
# Submitted via: CD-Import v1.0
#
DISCID=910d690c
DTITLE=Tricky - Maxinquaye
DYEAR=1995
DGENRE=
TTITLE0=Overcome
TTITLE1=Ponderosa
TTITLE2=Black Steel
TTITLE3=Hell Is Around The Corner
TTITLE4=Pumpkin
TTITLE5=Aftermath
TTITLE6=Abbon Fat Track
TTITLE7=Brand New You're Retro
TTITLE8=Suffocated Love
TTITLE9=You Don't
TTITLE10=Strugglin'
TTITLE11=Feed Me
EXTD=
EXTT0=
EXTT1=
EXTT2=
EXTT3=
EXTT4=
EXTT5=
EXTT6=
EXTT7=
EXTT8=
EXTT9=
EXTT10=
EXTT11=
PLAYORDER=
